# Blender 5.0.0
# www.blender.org
mtllib cross.mtl
o Cube
v -0.157296 -0.157296 0.157296
v -0.209728 0.351272 0.209046
v -0.157296 -0.157296 -0.157296
v -0.209728 0.337527 -0.209046
v 0.157296 -0.157296 0.157296
v 0.209728 0.351273 0.209046
v 0.157296 -0.157296 -0.157296
v 0.209728 0.337527 -0.209046
v -0.209728 1.150411 0.179619
v -0.209728 1.098281 -0.234321
v 0.209728 1.098281 -0.234321
v 0.209728 1.150411 0.179619
v -0.239090 1.884553 0.209740
v -0.239090 1.901430 -0.495854
v 0.239090 1.901430 -0.495854
v 0.239090 1.884552 0.209740
v -0.209728 2.810580 0.081276
v -0.209728 2.827679 -0.337831
v 0.209728 2.827679 -0.337831
v 0.209728 2.810580 0.081276
v 0.239090 2.373554 -0.501005
v 0.239090 2.344728 0.205530
v -0.239090 2.344728 0.205530
v -0.239090 2.373554 -0.501005
v 0.209728 1.961996 1.031981
v -0.209728 1.961996 1.031981
v 0.209728 2.240743 1.043354
v -0.209728 2.240743 1.043354
v -0.209728 2.059381 -1.354954
v 0.209728 2.059381 -1.354954
v -0.209728 2.338128 -1.343581
v 0.209728 2.338128 -1.343582
v -0.157296 3.272945 0.047665
v -0.157296 3.285770 -0.266666
v 0.157296 3.285770 -0.266666
v 0.157296 3.272945 0.047665
v -0.157296 2.112209 -1.794333
v 0.157296 2.112209 -1.794333
v -0.157296 2.321269 -1.785803
v 0.157296 2.321269 -1.785803
v 0.157296 1.977626 1.504336
v -0.157296 1.977626 1.504336
v 0.157296 2.186686 1.512865
v -0.157296 2.186686 1.512865
v -0.191765 -0.191765 -0.000000
v -0.200747 0.024490 0.200662
v -0.288376 0.344400 0.000000
v -0.200747 0.022772 -0.200662
v 0.000000 -0.191765 -0.191765
v 0.000000 0.334950 -0.287438
v 0.200747 0.022772 -0.200662
v 0.191765 -0.191765 0.000000
v 0.288376 0.344400 -0.000000
v 0.200747 0.024490 0.200662
v -0.000000 -0.191765 0.191765
v 0.000000 0.353850 0.287438
v -0.288376 1.124346 -0.027351
v 0.000000 1.088507 -0.311935
v 0.288376 1.124346 -0.027351
v 0.000000 1.160186 0.257233
v -0.209728 0.702969 -0.211182
v 0.209728 0.702969 -0.211182
v 0.209728 0.742129 0.204344
v -0.209728 0.742129 0.204344
v -0.299037 1.878293 -0.135865
v -0.000000 1.830589 -0.586135
v 0.299037 1.878293 -0.135865
v 0.000000 1.815722 0.308382
v 0.212874 1.538832 0.139893
v -0.212874 1.538832 0.139893
v -0.212874 1.509642 -0.305360
v 0.212874 1.509642 -0.305360
v -0.288376 2.819129 -0.128278
v 0.000000 2.830885 -0.416414
v 0.288376 2.819129 -0.128278
v 0.000000 2.807374 0.159859
v 0.212874 2.584023 -0.362794
v 0.299037 2.130742 0.210886
v -0.212874 2.565706 0.086164
v -0.299037 2.159543 -0.519364
v 0.299037 2.159543 -0.519364
v 0.212874 2.565706 0.086164
v -0.299037 2.130742 0.210886
v -0.212874 2.584023 -0.362794
v 0.000000 2.432601 -0.593811
v -0.000000 2.396035 0.302415
v -0.299037 2.359119 -0.147188
v 0.299037 2.359119 -0.147188
v 0.000000 1.909731 1.029849
v 0.288376 2.101370 1.037668
v -0.288376 2.101369 1.037668
v 0.000000 2.293008 1.045486
v 0.212874 2.264589 0.637094
v 0.212874 1.967134 0.627309
v -0.212874 1.967134 0.627309
v -0.212874 2.264589 0.637094
v 0.000000 2.007116 -1.357087
v -0.288376 2.198755 -1.349268
v 0.288376 2.198755 -1.349268
v 0.000000 2.390393 -1.341449
v -0.212874 2.328968 -0.940842
v -0.212874 2.029998 -0.950508
v 0.212874 2.328968 -0.940842
v 0.212874 2.029998 -0.950508
v -0.191765 3.316036 -0.108004
v 0.000000 3.323853 -0.299610
v 0.191765 3.316036 -0.108004
v -0.000000 3.308218 0.083602
v 0.200747 3.087856 0.083600
v -0.200747 3.087856 0.083600
v -0.200747 3.104223 -0.317560
v 0.200747 3.104223 -0.317560
v -0.000000 2.090379 -1.821656
v -0.191765 2.217816 -1.816457
v 0.191765 2.217816 -1.816457
v -0.000000 2.345252 -1.811257
v 0.200747 2.344203 -1.639023
v -0.200747 2.344203 -1.639023
v -0.200747 2.077394 -1.649909
v 0.200747 2.077394 -1.649909
v 0.000000 1.953520 1.532800
v 0.191765 2.080956 1.538000
v -0.191765 2.080956 1.538000
v -0.000000 2.208392 1.543199
v -0.200747 1.955266 1.343465
v -0.200747 2.222076 1.354350
v 0.200747 1.955266 1.343465
v 0.200747 2.222076 1.354350
v -0.276239 0.020232 0.000000
v 0.000000 0.019051 -0.276122
v 0.276239 0.020232 0.000000
v 0.000000 0.021414 0.276122
v 0.000000 -0.264102 0.000000
v 0.000000 0.695626 -0.289093
v -0.000000 1.539256 0.222124
v 0.288376 0.722549 -0.003419
v -0.288376 0.722549 -0.003419
v 0.000000 0.749472 0.282255
v 0.289949 2.573411 -0.138328
v 0.000000 1.498510 -0.387109
v 0.289949 1.524686 -0.082176
v -0.289949 1.524686 -0.082176
v 0.000000 3.088395 0.159177
v -0.289949 2.573411 -0.138328
v 0.000000 2.566688 0.169011
v 0.000000 2.591754 -0.445354
v -0.289949 2.181266 -0.945055
v 0.289949 2.117248 0.630118
v -0.309000 2.142724 -0.152465
v 0.309000 2.142724 -0.152465
v -0.276239 2.088553 1.351806
v -0.289949 2.117248 0.630118
v 0.000000 1.911256 0.633503
v 0.000000 2.318006 0.646631
v -0.000000 2.394477 -1.639578
v 0.000000 2.382985 -0.946024
v 0.289949 2.181266 -0.945055
v 0.000000 1.973663 -0.958950
v -0.000000 3.393007 -0.104864
v 0.000000 3.110917 -0.392842
v 0.276239 3.099656 -0.116832
v -0.276239 3.099655 -0.116832
v -0.000000 2.220075 -1.871836
v -0.276239 2.210905 -1.647068
v 0.276239 2.210905 -1.647068
v 0.000000 2.027332 -1.654557
v 0.000000 2.078439 1.599696
v 0.000000 1.904980 1.344316
v 0.000000 2.272125 1.359296
v 0.276239 2.088553 1.351806
vn -0.8938 -0.3245 0.3097
vn -0.9351 -0.0349 0.3527
vn -0.9355 -0.0355 -0.3516
vn -0.8938 -0.3257 -0.3082
vn -0.3091 -0.3263 -0.8933
vn -0.3512 -0.0342 -0.9357
vn 0.3512 -0.0342 -0.9357
vn 0.3091 -0.3263 -0.8933
vn 0.8938 -0.3257 -0.3082
vn 0.9355 -0.0355 -0.3516
vn 0.9351 -0.0349 0.3527
vn 0.8938 -0.3245 0.3097
vn 0.3086 -0.3232 0.8946
vn 0.3508 -0.0327 0.9359
vn -0.3508 -0.0327 0.9359
vn -0.3086 -0.3232 0.8946
vn -0.3061 -0.9015 -0.3061
vn 0.3061 -0.9015 -0.3061
vn 0.3061 -0.9015 0.3061
vn -0.3061 -0.9015 0.3061
vn 0.3493 -0.0049 -0.9370
vn -0.3493 -0.0049 -0.9370
vn -0.3491 -0.0546 -0.9355
vn 0.3491 -0.0546 -0.9355
vn -0.3542 0.0893 0.9309
vn 0.3542 0.0893 0.9309
vn 0.3918 -0.2394 0.8884
vn -0.3918 -0.2394 0.8884
vn 0.9357 0.0037 0.3529
vn 0.9356 -0.0026 -0.3529
vn 0.9356 -0.0208 -0.3525
vn 0.9356 0.0212 0.3525
vn -0.9356 -0.0026 -0.3529
vn -0.9357 0.0037 0.3529
vn -0.9356 0.0212 0.3525
vn -0.9356 -0.0208 -0.3525
vn -0.3494 0.0118 0.9369
vn 0.3494 0.0118 0.9369
vn 0.3491 0.0568 0.9354
vn -0.3491 0.0568 0.9354
vn 0.9625 0.1374 0.2338
vn 0.9625 0.1566 -0.2213
vn 0.9412 0.0331 -0.3362
vn 0.9412 0.0055 0.3379
vn 0.3551 -0.1652 -0.9201
vn -0.3551 -0.1652 -0.9201
vn -0.3879 -0.4476 -0.8057
vn 0.3879 -0.4476 -0.8057
vn 0.9405 0.0349 0.3381
vn 0.9405 -0.0574 -0.3350
vn 0.9660 -0.1207 -0.2286
vn 0.9702 -0.0544 0.2361
vn -0.9405 -0.0574 -0.3350
vn -0.9405 0.0349 0.3381
vn -0.9702 -0.0544 0.2361
vn -0.9660 -0.1207 -0.2286
vn -0.3516 0.0029 0.9362
vn 0.3516 0.0029 0.9362
vn 0.3109 0.2832 0.9073
vn -0.3109 0.2832 0.9073
vn -0.9625 0.1566 -0.2213
vn -0.9625 0.1374 0.2338
vn -0.9412 0.0055 0.3379
vn -0.9412 0.0331 -0.3362
vn -0.3667 0.5217 0.7703
vn 0.3667 0.5217 0.7703
vn 0.3566 0.0293 0.9338
vn -0.3566 0.0293 0.9338
vn 0.3669 0.5862 -0.7223
vn -0.3669 0.5862 -0.7223
vn -0.3567 0.1060 -0.9282
vn 0.3567 0.1060 -0.9282
vn -0.9430 -0.3197 -0.0924
vn -0.9331 0.3564 -0.0475
vn -0.8791 0.4765 0.0106
vn -0.8815 -0.4711 -0.0324
vn 0.9428 -0.3266 0.0667
vn 0.9323 0.3532 0.0776
vn 0.8789 0.4761 0.0283
vn 0.8807 -0.4736 -0.0071
vn -0.9849 -0.1396 -0.1024
vn -0.9865 -0.1322 0.0962
vn -0.9819 0.1595 0.1017
vn -0.9824 0.1644 -0.0882
vn 0.9865 -0.1322 0.0962
vn 0.9849 -0.1396 -0.1024
vn 0.9824 0.1644 -0.0882
vn 0.9819 0.1595 0.1017
vn -0.8701 0.4898 0.0541
vn -0.8701 -0.4926 0.0140
vn -0.8338 -0.4454 0.3263
vn -0.8338 0.4173 0.3615
vn -0.9323 0.3532 0.0776
vn -0.9428 -0.3266 0.0667
vn -0.8807 -0.4736 -0.0071
vn -0.8789 0.4761 0.0283
vn -0.3084 -0.9225 0.2321
vn 0.3084 -0.9225 0.2321
vn 0.2478 -0.9688 -0.0071
vn -0.2478 -0.9688 -0.0071
vn 0.2658 0.9428 0.2012
vn -0.2658 0.9428 0.2012
vn -0.2437 0.9680 0.0597
vn 0.2437 0.9680 0.0597
vn -0.2424 0.9701 0.0129
vn 0.2424 0.9701 0.0129
vn 0.2139 0.9460 -0.2435
vn -0.2139 0.9460 -0.2435
vn -0.2658 0.9562 -0.1225
vn 0.2658 0.9562 -0.1225
vn 0.2437 0.9697 0.0192
vn -0.2437 0.9697 0.0192
vn 0.9331 0.3564 -0.0475
vn 0.9430 -0.3197 -0.0924
vn 0.8815 -0.4711 -0.0324
vn 0.8791 0.4765 0.0106
vn 0.3191 -0.8974 -0.3047
vn -0.3191 -0.8974 -0.3047
vn -0.2500 -0.9652 -0.0766
vn 0.2500 -0.9652 -0.0766
vn 0.3219 0.9027 -0.2854
vn -0.3219 0.9027 -0.2854
vn -0.3219 0.8765 0.3579
vn 0.3219 0.8765 0.3579
vn 0.3516 0.0792 -0.9328
vn -0.3516 0.0792 -0.9328
vn -0.3109 0.3562 -0.8812
vn 0.3109 0.3562 -0.8812
vn 0.9353 0.0267 0.3530
vn 0.9353 0.0554 -0.3496
vn 0.8950 0.3324 -0.2976
vn 0.8950 0.3070 0.3237
vn -0.9353 0.0554 -0.3496
vn -0.9353 0.0267 0.3530
vn -0.8950 0.3070 0.3237
vn -0.8950 0.3324 -0.2976
vn 0.2355 -0.3168 -0.9188
vn -0.2355 -0.3168 -0.9188
vn -0.2355 0.3906 -0.8899
vn 0.2354 0.3906 -0.8899
vn -0.8701 -0.4897 -0.0559
vn -0.8701 0.4927 -0.0158
vn -0.8240 0.4409 -0.3558
vn -0.8240 -0.4104 -0.3905
vn 0.8701 0.4927 -0.0158
vn 0.8701 -0.4897 -0.0559
vn 0.8240 -0.4104 -0.3905
vn 0.8240 0.4409 -0.3558
vn 0.2424 -0.9679 -0.0661
vn -0.2424 -0.9679 -0.0661
vn -0.2139 -0.9230 -0.3198
vn 0.2139 -0.9230 -0.3198
vn -0.2568 -0.4219 0.8695
vn 0.2568 -0.4219 0.8695
vn 0.2568 0.3496 0.9010
vn -0.2568 0.3496 0.9010
vn -0.2424 -0.9701 -0.0143
vn 0.2424 -0.9701 -0.0143
vn 0.2157 -0.9514 0.2199
vn -0.2157 -0.9514 0.2199
vn 0.2424 0.9680 0.0648
vn -0.2424 0.9680 0.0648
vn -0.2157 0.9303 0.2967
vn 0.2157 0.9303 0.2967
vn 0.8701 -0.4926 0.0140
vn 0.8701 0.4898 0.0541
vn 0.8338 0.4173 0.3615
vn 0.8338 -0.4454 0.3263
vt 0.375000 0.000000
vt 0.500000 0.000000
vt 0.495660 0.125000
vt 0.375000 0.125000
vt 0.625000 0.000000
vt 0.586806 0.125000
vt 0.583333 0.250000
vt 0.494792 0.250000
vt 0.375000 0.250000
vt 0.494792 0.375000
vt 0.375000 0.375000
vt 0.583333 0.375000
vt 0.583333 0.500000
vt 0.494792 0.500000
vt 0.375000 0.500000
vt 0.494792 0.625000
vt 0.375000 0.625000
vt 0.583333 0.625000
vt 0.583333 0.750000
vt 0.494792 0.750000
vt 0.375000 0.750000
vt 0.495660 0.875000
vt 0.375000 0.875000
vt 0.586806 0.875000
vt 0.625000 1.000000
vt 0.500000 1.000000
vt 0.375000 1.000000
vt 0.125000 0.500000
vt 0.250000 0.500000
vt 0.250000 0.625000
vt 0.125000 0.625000
vt 0.250000 0.750000
vt 0.125000 0.750000
vt 0.583333 0.500000
vt 0.583333 0.375000
vt 0.619792 0.375000
vt 0.619792 0.500000
vt 0.619792 0.250000
vt 0.625000 0.250000
vt 0.625000 0.375000
vt 0.625000 0.500000
vt 0.625000 0.875000
vt 0.625000 0.875000
vt 0.625000 1.000000
vt 0.625000 0.750000
vt 0.625000 0.750000
vt 0.625000 0.875868
vt 0.583333 0.750000
vt 0.583333 0.625000
vt 0.619792 0.625000
vt 0.619792 0.750000
vt 0.625000 0.625000
vt 0.625000 0.750000
vt 0.586806 0.125000
vt 0.620660 0.125000
vt 0.619792 0.250000
vt 0.625000 0.000000
vt 0.625000 0.125000
vt 0.586806 0.875000
vt 0.620660 0.875000
vt 0.583333 0.750000
vt 0.619792 0.750000
vt 0.625000 0.750000
vt 0.625000 0.625000
vt 0.625000 0.500000
vt 0.625000 0.375000
vt 0.625000 0.375000
vt 0.625000 0.500000
vt 0.625000 0.250000
vt 0.625000 0.250000
vt 0.625000 0.625000
vt 0.625000 0.125000
vt 0.625000 0.125000
vt 0.625868 0.750000
vt 0.625000 0.750000
vt 0.625000 0.125000
vt 0.625000 0.875868
vt 0.625000 0.217014
vt 0.625000 0.255208
vt 0.625000 0.287326
vt 0.625000 0.291667
vt 0.625000 0.260417
vt 0.625000 0.717014
vt 0.625000 0.755208
vt 0.625000 0.787327
vt 0.625000 0.787326
vt 0.625000 0.791667
vt 0.625000 0.760417
vt 0.625000 0.791667
vt 0.625000 0.217014
vt 0.625000 0.034722
vt 0.625000 0.625000
vt 0.625000 0.532986
vt 0.625000 0.034722
vt 0.625000 0.003472
vt 0.625000 0.879340
vt 0.625000 0.880208
vt 0.625000 0.875868
vt 0.625000 0.879340
vt 0.625000 0.880208
vt 0.625000 0.375000
vt 0.625000 0.295235
vt 0.625000 0.458333
vt 0.625000 0.454765
vt 0.625000 0.437500
vt 0.625000 0.312500
vt 0.625000 0.375000
vt 0.625000 0.462674
vt 0.625000 0.494792
vt 0.625000 0.462674
vt 0.625000 0.458333
vt 0.625000 0.489583
vt 0.625000 0.500000
vt 0.750000 0.500000
vt 0.753472 0.625000
vt 0.659722 0.625000
vt 0.875000 0.500000
vt 0.875000 0.625000
vt 0.875000 0.750000
vt 0.750000 0.750000
vt 0.625868 0.500000
vt 0.628472 0.625000
vt 0.659722 0.625000
vt 0.625000 0.437500
vt 0.625000 0.451196
vt 0.625000 0.312500
vt 0.625000 0.298804
vt 0.625000 0.265239
vt 0.625000 0.295235
vt 0.625000 0.298804
vt 0.625000 0.484761
vt 0.625000 0.882909
vt 0.625000 0.881559
vt 0.625000 0.812500
vt 0.625000 0.798804
vt 0.625000 0.880884
vt 0.625000 0.795235
vt 0.625000 0.880884
vt 0.625000 0.795235
vt 0.625000 0.882909
vt 0.625000 0.765239
vt 0.625000 0.798804
s 0
f 1/1/1 46/2/1 129/3/1 45/4/1
f 46/2/2 2/5/2 47/6/2 129/3/2
f 129/3/3 47/6/3 4/7/3 48/8/3
f 45/4/4 129/3/4 48/8/4 3/9/4
f 3/9/5 48/8/5 130/10/5 49/11/5
f 48/8/6 4/7/6 50/12/6 130/10/6
f 130/10/7 50/12/7 8/13/7 51/14/7
f 49/11/8 130/10/8 51/14/8 7/15/8
f 7/15/9 51/14/9 131/16/9 52/17/9
f 51/14/10 8/13/10 53/18/10 131/16/10
f 131/16/11 53/18/11 6/19/11 54/20/11
f 52/17/12 131/16/12 54/20/12 5/21/12
f 5/21/13 54/20/13 132/22/13 55/23/13
f 54/20/14 6/19/14 56/24/14 132/22/14
f 132/22/15 56/24/15 2/25/15 46/26/15
f 55/23/16 132/22/16 46/26/16 1/27/16
f 3/28/17 49/29/17 133/30/17 45/31/17
f 49/29/18 7/15/18 52/17/18 133/30/18
f 133/30/19 52/17/19 5/21/19 55/32/19
f 45/31/20 133/30/20 55/32/20 1/33/20
f 8/34/21 50/35/21 134/36/21 62/37/21
f 50/35/22 4/7/22 61/38/22 134/36/22
f 134/36/23 61/38/23 10/39/23 58/40/23
f 62/37/24 134/36/24 58/40/24 11/41/24
f 9/25/25 60/42/25 135/43/25 70/44/25
f 60/42/26 12/45/26 69/46/26 135/43/26
f 135/43/27 69/46/27 16/45/27 68/47/27
f 70/44/28 135/43/28 68/47/28 13/25/28
f 6/48/29 53/49/29 136/50/29 63/51/29
f 53/49/30 8/34/30 62/37/30 136/50/30
f 136/50/31 62/37/31 11/41/31 59/52/31
f 63/51/32 136/50/32 59/52/32 12/53/32
f 4/7/33 47/54/33 137/55/33 61/56/33
f 47/54/34 2/5/34 64/57/34 137/55/34
f 137/55/35 64/57/35 9/5/35 57/58/35
f 61/56/36 137/55/36 57/58/36 10/39/36
f 2/25/37 56/59/37 138/60/37 64/44/37
f 56/59/38 6/61/38 63/62/38 138/60/38
f 138/60/39 63/62/39 12/45/39 60/42/39
f 64/44/40 138/60/40 60/42/40 9/25/40
f 22/63/41 88/64/41 139/52/41 82/45/41
f 88/64/42 21/65/42 77/65/42 139/52/42
f 139/52/43 77/65/43 19/65/43 75/52/43
f 82/45/44 139/52/44 75/52/44 20/45/44
f 11/65/45 58/66/45 140/67/45 72/68/45
f 58/66/46 10/39/46 71/69/46 140/67/46
f 140/67/47 71/69/47 14/70/47 66/40/47
f 72/68/48 140/67/48 66/40/48 15/65/48
f 12/45/49 59/52/49 141/71/49 69/46/49
f 59/52/50 11/65/50 72/68/50 141/71/50
f 141/71/51 72/68/51 15/65/51 67/64/51
f 69/46/52 141/71/52 67/64/52 16/45/52
f 10/39/53 57/58/53 142/72/53 71/69/53
f 57/58/54 9/5/54 70/57/54 142/72/54
f 142/72/55 70/57/55 13/5/55 65/73/55
f 71/69/56 142/72/56 65/73/56 14/70/56
f 17/25/57 76/42/57 143/42/57 110/44/57
f 76/42/58 20/45/58 109/74/58 143/42/58
f 143/42/59 109/74/59 36/75/59 108/42/59
f 110/44/60 143/42/60 108/42/60 33/44/60
f 24/39/61 87/58/61 144/76/61 84/39/61
f 87/58/62 23/5/62 79/57/62 144/76/62
f 144/76/63 79/57/63 17/5/63 73/58/63
f 84/39/64 144/76/64 73/58/64 18/39/64
f 23/25/65 86/77/65 145/42/65 79/44/65
f 86/77/66 22/63/66 82/45/66 145/42/66
f 145/42/67 82/45/67 20/45/67 76/42/67
f 79/44/68 145/42/68 76/42/68 17/25/68
f 21/65/69 85/40/69 146/66/69 77/65/69
f 85/40/70 24/39/70 84/39/70 146/66/70
f 146/66/71 84/39/71 18/39/71 74/66/71
f 77/65/72 146/66/72 74/66/72 19/65/72
f 14/70/73 80/78/73 147/79/73 102/80/73
f 80/78/74 24/39/74 101/80/74 147/79/74
f 147/79/75 101/80/75 31/81/75 98/82/75
f 102/80/76 147/79/76 98/82/76 29/81/76
f 16/45/77 78/83/77 148/84/77 94/85/77
f 78/83/78 22/63/78 93/86/78 148/84/78
f 148/84/79 93/86/79 27/87/79 90/88/79
f 94/85/80 148/84/80 90/88/80 25/89/80
f 14/70/81 65/73/81 149/58/81 80/90/81
f 65/73/82 13/5/82 83/91/82 149/58/82
f 149/58/83 83/91/83 23/5/83 87/58/83
f 80/90/84 149/58/84 87/58/84 24/39/84
f 16/45/85 67/64/85 150/92/85 78/83/85
f 67/64/86 15/65/86 81/93/86 150/92/86
f 150/92/87 81/93/87 21/65/87 88/64/87
f 78/83/88 150/92/88 88/64/88 22/63/88
f 28/5/89 91/57/89 151/57/89 126/57/89
f 91/57/90 26/5/90 125/57/90 151/57/90
f 151/57/91 125/57/91 42/57/91 123/57/91
f 126/57/92 151/57/92 123/57/92 44/57/92
f 23/5/93 83/94/93 152/95/93 96/57/93
f 83/94/94 13/5/94 95/57/94 152/95/94
f 152/95/95 95/57/95 26/5/95 91/57/95
f 96/57/96 152/95/96 91/57/96 28/5/96
f 13/25/97 68/47/97 153/96/97 95/44/97
f 68/47/98 16/45/98 94/85/98 153/96/98
f 153/96/99 94/85/99 25/89/99 89/97/99
f 95/44/100 153/96/100 89/97/100 26/25/100
f 22/63/101 86/98/101 154/99/101 93/86/101
f 86/98/102 23/25/102 96/44/102 154/99/102
f 154/99/103 96/44/103 28/25/103 92/100/103
f 93/86/104 154/99/104 92/100/104 27/87/104
f 31/81/105 100/40/105 155/101/105 118/102/105
f 100/40/106 32/103/106 117/104/106 155/101/106
f 155/101/107 117/104/107 40/105/107 116/101/107
f 118/102/108 155/101/108 116/101/108 39/106/108
f 24/39/109 85/107/109 156/40/109 101/80/109
f 85/107/110 21/65/110 103/108/110 156/40/110
f 156/40/111 103/108/111 32/103/111 100/40/111
f 101/80/112 156/40/112 100/40/112 31/81/112
f 21/65/113 81/93/113 157/109/113 103/108/113
f 81/93/114 15/65/114 104/110/114 157/109/114
f 157/109/115 104/110/115 30/111/115 99/112/115
f 103/108/116 157/109/116 99/112/116 32/103/116
f 15/65/117 66/40/117 158/107/117 104/110/117
f 66/40/118 14/70/118 102/80/118 158/107/118
f 158/107/119 102/80/119 29/81/119 97/107/119
f 104/110/120 158/107/120 97/107/120 30/111/120
f 35/113/121 106/114/121 159/115/121 107/116/121
f 106/114/122 34/117/122 105/118/122 159/115/122
f 159/115/123 105/118/123 33/119/123 108/120/123
f 107/116/124 159/115/124 108/120/124 36/75/124
f 19/65/125 74/66/125 160/40/125 112/121/125
f 74/66/126 18/39/126 111/70/126 160/40/126
f 160/40/127 111/70/127 34/69/127 106/40/127
f 112/121/128 160/40/128 106/40/128 35/113/128
f 20/45/129 75/52/129 161/122/129 109/74/129
f 75/52/130 19/65/130 112/121/130 161/122/130
f 161/122/131 112/121/131 35/113/131 107/123/131
f 109/74/132 161/122/132 107/123/132 36/75/132
f 18/39/133 73/58/133 162/58/133 111/70/133
f 73/58/134 17/5/134 110/57/134 162/58/134
f 162/58/135 110/57/135 33/57/135 105/58/135
f 111/70/136 162/58/136 105/58/136 34/69/136
f 38/124/137 113/101/137 163/107/137 115/125/137
f 113/101/138 37/126/138 114/127/138 163/107/138
f 163/107/139 114/127/139 39/106/139 116/101/139
f 115/125/140 163/107/140 116/101/140 40/105/140
f 29/81/141 98/82/141 164/128/141 119/129/141
f 98/82/142 31/81/142 118/102/142 164/128/142
f 164/128/143 118/102/143 39/106/143 114/130/143
f 119/129/144 164/128/144 114/130/144 37/126/144
f 32/103/145 99/112/145 165/131/145 117/104/145
f 99/112/146 30/111/146 120/104/146 165/131/146
f 165/131/147 120/104/147 38/124/147 115/125/147
f 117/104/148 165/131/148 115/125/148 40/105/148
f 30/111/149 97/107/149 166/101/149 120/104/149
f 97/107/150 29/81/150 119/129/150 166/101/150
f 166/101/151 119/129/151 37/126/151 113/101/151
f 120/104/152 166/101/152 113/101/152 38/124/152
f 42/25/153 121/132/153 167/133/153 123/44/153
f 121/132/154 41/134/154 122/135/154 167/133/154
f 167/133/155 122/135/155 43/134/155 124/132/155
f 123/44/156 167/133/156 124/132/156 44/25/156
f 26/25/157 89/97/157 168/136/157 125/44/157
f 89/97/158 25/89/158 127/137/158 168/136/158
f 168/136/159 127/137/159 41/134/159 121/132/159
f 125/44/160 168/136/160 121/132/160 42/25/160
f 27/87/161 92/100/161 169/138/161 128/139/161
f 92/100/162 28/25/162 126/44/162 169/138/162
f 169/138/163 126/44/163 44/25/163 124/140/163
f 128/139/164 169/138/164 124/140/164 43/134/164
f 25/89/165 90/88/165 170/141/165 127/137/165
f 90/88/166 27/87/166 128/139/166 170/141/166
f 170/141/167 128/139/167 43/134/167 122/142/167
f 127/137/168 170/141/168 122/142/168 41/134/168
